<mxfile host="app.diagrams.net" modified="2023-05-06T06:07:49.873Z" agent="Mozilla/5.0 (Windows NT 10.0; Win64; x64) AppleWebKit/537.36 (KHTML, like Gecko) Chrome/113.0.0.0 Safari/537.36" etag="hk8QZSboIGtLfqeiiCiw" version="21.2.9" type="device">
  <diagram name="Page-1" id="a8VMJ7PQ_NJ9nVrximoo">
    <mxGraphModel dx="1434" dy="806" grid="1" gridSize="10" guides="1" tooltips="1" connect="1" arrows="1" fold="1" page="1" pageScale="1" pageWidth="850" pageHeight="1100" math="0" shadow="0">
      <root>
        <mxCell id="0" />
        <mxCell id="1" parent="0" />
        <mxCell id="Z69tHWe33oGt1HV6Hivp-2" style="edgeStyle=orthogonalEdgeStyle;rounded=0;orthogonalLoop=1;jettySize=auto;html=1;startArrow=classic;startFill=1;" edge="1" parent="1" source="Z69tHWe33oGt1HV6Hivp-1" target="Z69tHWe33oGt1HV6Hivp-4">
          <mxGeometry relative="1" as="geometry">
            <mxPoint x="420" y="310" as="targetPoint" />
          </mxGeometry>
        </mxCell>
        <mxCell id="Z69tHWe33oGt1HV6Hivp-3" style="edgeStyle=orthogonalEdgeStyle;rounded=0;orthogonalLoop=1;jettySize=auto;html=1;startArrow=classic;startFill=1;" edge="1" parent="1" source="Z69tHWe33oGt1HV6Hivp-1" target="Z69tHWe33oGt1HV6Hivp-5">
          <mxGeometry relative="1" as="geometry">
            <mxPoint x="560" y="440" as="targetPoint" />
          </mxGeometry>
        </mxCell>
        <mxCell id="Z69tHWe33oGt1HV6Hivp-1" value="Server&lt;br&gt;(API, Express)" style="rounded=0;whiteSpace=wrap;html=1;" vertex="1" parent="1">
          <mxGeometry x="360" y="400" width="120" height="120" as="geometry" />
        </mxCell>
        <mxCell id="Z69tHWe33oGt1HV6Hivp-16" value="" style="edgeStyle=orthogonalEdgeStyle;rounded=0;orthogonalLoop=1;jettySize=auto;html=1;" edge="1" parent="1" source="Z69tHWe33oGt1HV6Hivp-4" target="Z69tHWe33oGt1HV6Hivp-15">
          <mxGeometry relative="1" as="geometry" />
        </mxCell>
        <mxCell id="Z69tHWe33oGt1HV6Hivp-4" value="Frontend&lt;br&gt;(NextJS)" style="whiteSpace=wrap;html=1;aspect=fixed;" vertex="1" parent="1">
          <mxGeometry x="380" y="200" width="80" height="80" as="geometry" />
        </mxCell>
        <mxCell id="Z69tHWe33oGt1HV6Hivp-7" style="edgeStyle=orthogonalEdgeStyle;rounded=1;orthogonalLoop=1;jettySize=auto;html=1;entryX=1;entryY=0.5;entryDx=0;entryDy=0;startArrow=classic;startFill=1;" edge="1" parent="1" source="Z69tHWe33oGt1HV6Hivp-5" target="Z69tHWe33oGt1HV6Hivp-4">
          <mxGeometry relative="1" as="geometry">
            <mxPoint x="640" y="240" as="targetPoint" />
          </mxGeometry>
        </mxCell>
        <mxCell id="Z69tHWe33oGt1HV6Hivp-8" style="edgeStyle=orthogonalEdgeStyle;rounded=1;orthogonalLoop=1;jettySize=auto;html=1;startArrow=classic;startFill=1;shadow=0;" edge="1" parent="1" source="Z69tHWe33oGt1HV6Hivp-5" target="Z69tHWe33oGt1HV6Hivp-9">
          <mxGeometry relative="1" as="geometry">
            <mxPoint x="640" y="640" as="targetPoint" />
          </mxGeometry>
        </mxCell>
        <mxCell id="Z69tHWe33oGt1HV6Hivp-26" value="Connect using ID" style="edgeLabel;html=1;align=center;verticalAlign=middle;resizable=0;points=[];" vertex="1" connectable="0" parent="Z69tHWe33oGt1HV6Hivp-8">
          <mxGeometry x="-0.0909" y="4" relative="1" as="geometry">
            <mxPoint x="-4" y="40" as="offset" />
          </mxGeometry>
        </mxCell>
        <mxCell id="Z69tHWe33oGt1HV6Hivp-5" value="Websocket&lt;br&gt;Server&lt;br&gt;(ws.js)" style="whiteSpace=wrap;html=1;aspect=fixed;" vertex="1" parent="1">
          <mxGeometry x="600" y="420" width="80" height="80" as="geometry" />
        </mxCell>
        <mxCell id="Z69tHWe33oGt1HV6Hivp-21" style="edgeStyle=orthogonalEdgeStyle;rounded=0;orthogonalLoop=1;jettySize=auto;html=1;endArrow=none;endFill=0;startArrow=classic;startFill=1;exitX=0;exitY=0.5;exitDx=0;exitDy=0;" edge="1" parent="1" source="Z69tHWe33oGt1HV6Hivp-24" target="Z69tHWe33oGt1HV6Hivp-22">
          <mxGeometry relative="1" as="geometry">
            <mxPoint x="440" y="640" as="targetPoint" />
            <mxPoint x="510" y="640" as="sourcePoint" />
          </mxGeometry>
        </mxCell>
        <mxCell id="Z69tHWe33oGt1HV6Hivp-9" value="Game Integration" style="whiteSpace=wrap;html=1;aspect=fixed;" vertex="1" parent="1">
          <mxGeometry x="720" y="600" width="80" height="80" as="geometry" />
        </mxCell>
        <mxCell id="Z69tHWe33oGt1HV6Hivp-18" style="edgeStyle=orthogonalEdgeStyle;rounded=0;orthogonalLoop=1;jettySize=auto;html=1;" edge="1" parent="1" source="Z69tHWe33oGt1HV6Hivp-15" target="Z69tHWe33oGt1HV6Hivp-19">
          <mxGeometry relative="1" as="geometry">
            <mxPoint x="240" y="440" as="targetPoint" />
          </mxGeometry>
        </mxCell>
        <mxCell id="Z69tHWe33oGt1HV6Hivp-15" value="Login with Github" style="whiteSpace=wrap;html=1;aspect=fixed;" vertex="1" parent="1">
          <mxGeometry x="200" y="200" width="80" height="80" as="geometry" />
        </mxCell>
        <mxCell id="Z69tHWe33oGt1HV6Hivp-20" style="edgeStyle=orthogonalEdgeStyle;rounded=0;orthogonalLoop=1;jettySize=auto;html=1;" edge="1" parent="1" source="Z69tHWe33oGt1HV6Hivp-19" target="Z69tHWe33oGt1HV6Hivp-1">
          <mxGeometry relative="1" as="geometry" />
        </mxCell>
        <mxCell id="Z69tHWe33oGt1HV6Hivp-19" value="Create dashboard account" style="whiteSpace=wrap;html=1;aspect=fixed;" vertex="1" parent="1">
          <mxGeometry x="200" y="420" width="80" height="80" as="geometry" />
        </mxCell>
        <mxCell id="Z69tHWe33oGt1HV6Hivp-23" style="edgeStyle=orthogonalEdgeStyle;rounded=0;orthogonalLoop=1;jettySize=auto;html=1;entryX=0.5;entryY=1;entryDx=0;entryDy=0;startArrow=classic;startFill=1;endArrow=none;endFill=0;" edge="1" parent="1" source="Z69tHWe33oGt1HV6Hivp-22" target="Z69tHWe33oGt1HV6Hivp-1">
          <mxGeometry relative="1" as="geometry" />
        </mxCell>
        <mxCell id="Z69tHWe33oGt1HV6Hivp-22" value="Fetch unique ID&lt;br&gt;(one time, or reset if necessary)" style="whiteSpace=wrap;html=1;aspect=fixed;" vertex="1" parent="1">
          <mxGeometry x="380" y="600" width="80" height="80" as="geometry" />
        </mxCell>
        <mxCell id="Z69tHWe33oGt1HV6Hivp-25" style="edgeStyle=orthogonalEdgeStyle;rounded=0;orthogonalLoop=1;jettySize=auto;html=1;entryX=0;entryY=0.5;entryDx=0;entryDy=0;" edge="1" parent="1" source="Z69tHWe33oGt1HV6Hivp-24" target="Z69tHWe33oGt1HV6Hivp-9">
          <mxGeometry relative="1" as="geometry" />
        </mxCell>
        <mxCell id="Z69tHWe33oGt1HV6Hivp-24" value="Save ID to server" style="whiteSpace=wrap;html=1;aspect=fixed;" vertex="1" parent="1">
          <mxGeometry x="550" y="600" width="80" height="80" as="geometry" />
        </mxCell>
      </root>
    </mxGraphModel>
  </diagram>
</mxfile>
